<svg xmlns="http://www.w3.org/2000/svg" viewBox="5 5 14 14"><g clip-path="url(#a)"><path d="M9.815 12a2.185 2.185 0 1 1 4.37 0 2.185 2.185 0 0 1-4.37 0Zm-1.181 0A3.366 3.366 0 0 0 12 15.365 3.366 3.366 0 1 0 8.634 12Zm6.08-3.499a.787.787 0 1 0 .787-.786.787.787 0 0 0-.787.786Zm-5.362 8.833c-.64-.03-.987-.136-1.218-.226a2.04 2.04 0 0 1-.754-.49 2.022 2.022 0 0 1-.49-.753c-.09-.23-.197-.578-.226-1.217-.032-.69-.038-.898-.038-2.648s.006-1.957.038-2.648c.029-.64.136-.986.225-1.217.12-.306.261-.525.49-.754.23-.23.448-.372.755-.49.23-.09.578-.197 1.218-.226.69-.031.898-.038 2.649-.038 1.75 0 1.958.007 2.65.038.639.03.985.137 1.217.226.306.118.524.26.754.49.23.23.371.448.49.754.09.23.197.578.226 1.217.032.69.038.898.038 2.648s-.006 1.957-.038 2.648c-.029.639-.136.986-.226 1.217a2.03 2.03 0 0 1-.49.753 2.04 2.04 0 0 1-.754.49c-.23.09-.579.197-1.218.226-.69.031-.899.038-2.65.038-1.75 0-1.958-.007-2.648-.038ZM9.297 5.486c-.698.032-1.175.143-1.591.305a3.216 3.216 0 0 0-1.162.756 3.2 3.2 0 0 0-.756 1.16c-.162.417-.273.893-.305 1.591-.032.699-.04.922-.04 2.702 0 1.78.008 2.003.04 2.701s.143 1.174.305 1.591c.167.43.391.797.756 1.16.365.365.73.589 1.162.757.417.162.893.272 1.591.304.7.032.923.04 2.704.04 1.78 0 2.004-.008 2.703-.04.698-.032 1.175-.142 1.591-.304a3.224 3.224 0 0 0 1.162-.756 3.21 3.21 0 0 0 .756-1.161c.162-.417.273-.893.305-1.59.031-.7.039-.923.039-2.702 0-1.78-.008-2.003-.04-2.702-.031-.698-.142-1.174-.304-1.59a3.221 3.221 0 0 0-.756-1.161 3.208 3.208 0 0 0-1.161-.756c-.417-.162-.894-.273-1.592-.305-.699-.031-.922-.04-2.703-.04-1.78 0-2.004.008-2.704.04Z"/><path d="M9.815 12a2.185 2.185 0 1 1 4.37 0 2.185 2.185 0 0 1-4.37 0Zm-1.181 0A3.366 3.366 0 0 0 12 15.365 3.366 3.366 0 1 0 8.634 12Zm6.08-3.499a.787.787 0 1 0 .787-.786.787.787 0 0 0-.787.786Zm-5.362 8.833c-.64-.03-.987-.136-1.218-.226a2.04 2.04 0 0 1-.754-.49 2.022 2.022 0 0 1-.49-.753c-.09-.23-.197-.578-.226-1.217-.032-.69-.038-.898-.038-2.648s.006-1.957.038-2.648c.029-.64.136-.986.225-1.217.12-.306.261-.525.49-.754.23-.23.448-.372.755-.49.23-.09.578-.197 1.218-.226.69-.031.898-.038 2.649-.038 1.75 0 1.958.007 2.65.038.639.03.985.137 1.217.226.306.118.524.26.754.49.23.23.371.448.49.754.09.23.197.578.226 1.217.032.69.038.898.038 2.648s-.006 1.957-.038 2.648c-.029.639-.136.986-.226 1.217a2.03 2.03 0 0 1-.49.753 2.04 2.04 0 0 1-.754.49c-.23.09-.579.197-1.218.226-.69.031-.899.038-2.65.038-1.75 0-1.958-.007-2.648-.038ZM9.297 5.486c-.698.032-1.175.143-1.591.305a3.216 3.216 0 0 0-1.162.756 3.2 3.2 0 0 0-.756 1.16c-.162.417-.273.893-.305 1.591-.032.699-.04.922-.04 2.702 0 1.78.008 2.003.04 2.701s.143 1.174.305 1.591c.167.43.391.797.756 1.16.365.365.73.589 1.162.757.417.162.893.272 1.591.304.7.032.923.04 2.704.04 1.78 0 2.004-.008 2.703-.04.698-.032 1.175-.142 1.591-.304a3.224 3.224 0 0 0 1.162-.756 3.21 3.21 0 0 0 .756-1.161c.162-.417.273-.893.305-1.59.031-.7.039-.923.039-2.702 0-1.78-.008-2.003-.04-2.702-.031-.698-.142-1.174-.304-1.59a3.221 3.221 0 0 0-.756-1.161 3.208 3.208 0 0 0-1.161-.756c-.417-.162-.894-.273-1.592-.305-.699-.031-.922-.04-2.703-.04-1.78 0-2.004.008-2.704.04Z"/></g><defs><clipPath id="a"><path d="M0 0h24v24H0z"/></clipPath></defs></svg>