<svg xmlns="http://www.w3.org/2000/svg" viewBox="6 6 11 12"><g fill-rule="evenodd" clip-path="url(#a)" clip-rule="evenodd"><path d="M13.98 9.853a4.718 4.718 0 0 0 2.756.883V9.179a2.75 2.75 0 0 1-1.463-.838 2.763 2.763 0 0 1-1.26-1.863h-1.44v7.887a1.67 1.67 0 0 1-3 1.006 1.671 1.671 0 0 1 1.257-3.085v-1.57a3.652 3.652 0 0 0-2.525 6.203 3.654 3.654 0 0 0 5.685-3.033l-.01-4.033Z"/><path d="M16.736 9.178v-.42a2.733 2.733 0 0 1-1.463-.417c.387.427.9.72 1.463.837Zm-2.724-2.7c0-.075-.022-.153-.032-.228v-.254h-1.987v7.89a1.668 1.668 0 0 1-1.671 1.66 1.649 1.649 0 0 1-.75-.175 1.67 1.67 0 0 0 3-1.007V6.478h1.44Zm-3.182 4.235v-.447a3.651 3.651 0 0 0-2.525 6.652 3.652 3.652 0 0 1 2.535-6.19l-.01-.015Z"/></g><defs><clipPath id="a"><path d="M0 0h24v24H0z"/></clipPath></defs></svg>