<svg xmlns="http://www.w3.org/2000/svg" viewBox="0 0 14 14" fill="currentColor"><path d="M13.51.898h-1.925c-2.048 0-2.97-.777-2.976-.777A.478.478 0 0 0 8.288 0H3.58a.477.477 0 0 0-.34.142L.332 3.078a.486.486 0 0 0 0 .688c.413.424.968.675 1.555.706V8.48H.481a.479.479 0 0 0-.34.142.489.489 0 0 0-.141.344v4.558a.489.489 0 0 0 .144.337c.09.09.211.139.337.139H2.37c.128 0 .25-.051.34-.142a.489.489 0 0 0 .141-.344v-1.105c1.708-.03 2.468.751 2.502.778a.48.48 0 0 0 .357.158h4.702a.476.476 0 0 0 .34-.142l2.914-2.929a.484.484 0 0 0 .105-.53.486.486 0 0 0-.105-.158 2.345 2.345 0 0 0-1.553-.698v-2.46h1.407c.127 0 .25-.05.34-.142a.489.489 0 0 0 .14-.344V1.384a.49.49 0 0 0-.304-.451.477.477 0 0 0-.187-.035Zm-2.368 5.044v3.096a2.37 2.37 0 0 0-.845.548l-.027.027c-.84-1.485-2.797-1.485-3.44-1.446-.867-.623-1.949-.757-3.142-.39-.288.09-.569.203-.84.337v-3.8a2.34 2.34 0 0 0 .845-.548l.027-.027c.845 1.486 2.797 1.484 3.438 1.441a3.12 3.12 0 0 0 1.859.583 4.977 4.977 0 0 0 2.117-.538l.008.717ZM3.778.972h4.35c.36.251 1.332.803 3.014.887v2.265c-.649.39-2.277 1.202-3.54.177a.487.487 0 0 0-.363-.103c-.022 0-1.963.24-2.668-.916h3.522c.128 0 .25-.051.34-.142a.489.489 0 0 0-.34-.83H3.976a.477.477 0 0 0-.34.142l-.622.628a1.412 1.412 0 0 1-1.601.284L3.778.972Zm-1.89 12.056H.962V9.452h.926v3.576Zm8.324-.657H5.89c-.371-.312-1.347-.973-3.04-.942v-2.2c.577-.35 2.253-1.22 3.539-.176a.48.48 0 0 0 .366.103c.02 0 1.96-.247 2.667.918H5.897a.479.479 0 0 0-.34.143.489.489 0 0 0 .34.83h4.111a.479.479 0 0 0 .34-.143l.623-.63a1.412 1.412 0 0 1 1.6-.283l-2.359 2.38Zm2.816-6.923h-.924V1.871h.926l-.002 3.577Z"/></svg>