<svg xmlns="http://www.w3.org/2000/svg" viewBox="0 0 12 14" fill="currentColor"><path fill-rule="evenodd" d="M11.824.167c.01.057.01.113.01.168l-.004.209v1.478a1.611 1.611 0 0 1-.056.365 1.96 1.96 0 0 1-.117.349c-.223.496-.27 1.007-.304 1.625l-.115 1.876a203.64 203.64 0 0 0-.194 3.354 2.899 2.899 0 0 1-.372 1.32c-.156.278-.296.561-.444.859l-.004.007c-.062.13-.126.263-.194.395l-.023.044-.233.036v1.746H6.3v-1.763l-.234-.033-.243-.478c-.23-.454-.46-.906-.684-1.36a.836.836 0 0 1-.074-.321c-.07-1.096-.138-2.193-.205-3.289l-.024-.383a468.65 468.65 0 0 1-.155-2.66 2.778 2.778 0 0 0-.227-.855 3.111 3.111 0 0 1-.211-1.277V0h7.563l.019.167zM8.741 12.999v-.747H7.323V13h1.418zm-2.255-2.206.217.431h2.67l.215-.43H6.486zm4.322-9.162v-.626H5.283v.626h5.473a.28.28 0 0 0 .052 0zm-.531 3.457c-.617-.04-2.168-.019-2.545.022V7.3h2.424c.014-.31.035-.623.057-.923l.01-.158c.027-.374.054-.755.054-1.13zm.081-1.022v-.178h.006a3.9 3.9 0 0 1 .037-.55c.037-.185.088-.368.15-.547l.04-.12c-.753-.04-4.431-.03-5.124.015v.013l.013.037c.029.085.057.167.079.252l.017.065c.042.14.07.281.085.425.073.978.133 1.958.193 2.935l.001.025.101 1.668.095 1.575a.426.426 0 0 0 .016.082h3.942l.091-1.435H6.726V4.066h3.632zM2.159.364l.083.092c.32.333.61.693.867 1.076a2.904 2.904 0 0 1 .355 2.408c-.016.02-.016.04-.016.06a.776.776 0 0 1-.052.16c-.182.393-.194.8-.194 1.29v7.376c-.036.32-.19.614-.43.83a1.35 1.35 0 0 1-.877.344h-.027a1.35 1.35 0 0 1-.87-.33 1.318 1.318 0 0 1-.44-.809 3.497 3.497 0 0 1 0-.417V5.063a1.792 1.792 0 0 0-.127-.67 3.536 3.536 0 0 1-.262-1.175c-.019-.445.07-.888.258-1.292.291-.62.758-1.12 1.212-1.602l.248-.266.07.08c.065.076.134.151.202.226zm.174 3.756c.435-.952.29-1.77-.455-2.537-.74.734-.896 1.63-.444 2.537h.9zm-.116 8.385V5.112h-.66v7.393c0 .086.036.17.097.23a.332.332 0 0 0 .563-.23z" clip-rule="evenodd"/></svg>