<svg xmlns="http://www.w3.org/2000/svg" viewBox="0 0 14 12" fill="currentColor"><path d="M13.952 10.983a.424.424 0 0 0 .022-.044.43.43 0 0 0 .014-.046c0-.015 0-.029.011-.044V1.145c0-.015 0-.028-.011-.044-.012-.015 0-.03-.014-.046a.479.479 0 0 0-.022-.043c0-.014-.013-.027-.021-.039a.496.496 0 0 0-.032-.032l-.017-.033-.05-.043L13.8.838l-.043-.025-.04-.021-.045-.015-.047-.014H.48L.425.75H.382L.335.777.29.792.251.813.208.838.175.865l-.04.036-.027.04a.463.463 0 0 0-.03.042c0 .013-.017.025-.022.038a.468.468 0 0 0-.022.044c0 .015-.01.03-.014.044a.083.083 0 0 1-.02.036.46.46 0 0 0 0 .052v9.606a.46.46 0 0 0 0 .052c0 .015 0 .028.012.044.008.03.02.06.036.088 0 .013.013.026.021.038a.506.506 0 0 0 .04.034l.017.023a.49.49 0 0 0 .049.042l.027.021c.02.012.04.023.061.032l.025.014c.03.012.06.022.09.028h.014a.499.499 0 0 0 .098.031h13.018a.507.507 0 0 0 .19-.038l.025-.014a.43.43 0 0 0 .06-.032l.028-.021a.49.49 0 0 0 .05-.042l.038-.044a.488.488 0 0 0 .053-.076zM.98 2.298l1.39 1.22v4.964L.98 9.698v-7.4zm9.983.53H3.047L1.763 1.704H12.24l-1.278 1.122zm-.301.954v4.43H3.348v-4.43h7.314zM3.047 9.167h7.916l1.278 1.129H1.763l1.284-1.129zm8.591-.689V3.514l1.39-1.22v7.404l-1.39-1.22z"/></svg>