<svg xmlns="http://www.w3.org/2000/svg" viewBox="0 0 14 14" fill="currentColor"><path fill-rule="evenodd" d="M2.683 12.475A7.098 7.098 0 0 0 7.108 14a2.87 2.87 0 0 0 2.712-1.79 2.86 2.86 0 0 0 .208-1.123v-.566c0-.384 0-.784.02-1.174a1.26 1.26 0 0 1 1-1.236c.241-.042.486-.06.73-.053h.232a2.053 2.053 0 0 0 1.984-1.927 4.738 4.738 0 0 0-.816-2.898C11.649.831 8.75-.393 5.815.112A7.054 7.054 0 0 0 1.45 2.751 6.94 6.94 0 0 0 .172 8.529a7.085 7.085 0 0 0 2.51 3.946ZM5.969 1.01a6.83 6.83 0 0 1 1.157-.1 6.21 6.21 0 0 1 5.275 2.812c.473.691.709 1.517.672 2.354a1.12 1.12 0 0 1-1.096 1.068h-.219a4.386 4.386 0 0 0-.927.075 2.178 2.178 0 0 0-1.716 2.1v1.762a1.947 1.947 0 0 1-1.23 1.869 1.952 1.952 0 0 1-.777.137 6.19 6.19 0 0 1-6.062-4.785A6.011 6.011 0 0 1 2.163 3.31a6.143 6.143 0 0 1 3.807-2.3Zm1.623 4.706a1.788 1.788 0 0 0 2.78-1.484A1.784 1.784 0 0 0 8.235 2.48a1.787 1.787 0 0 0-1.302 2.434c.135.326.364.605.658.8Zm.507-2.209a.875.875 0 0 1 .485-.147v.01a.875.875 0 0 1 .875.863.873.873 0 0 1-1.493.618.873.873 0 0 1 .133-1.344Zm-3.85 4.038A1.788 1.788 0 0 1 2.498 5.41a1.785 1.785 0 0 1 2.436-1.3 1.787 1.787 0 0 1 1.102 1.65A1.786 1.786 0 0 1 4.25 7.545Zm0-2.657a.875.875 0 0 0-.618 1.491.875.875 0 1 0 .619-1.491Zm.787 6.49a1.788 1.788 0 0 0 2.78-1.485 1.784 1.784 0 0 0-2.136-1.75 1.787 1.787 0 0 0-1.302 2.433c.135.326.364.605.658.801Zm.507-2.21a.875.875 0 0 1 1.213 1.212.874.874 0 1 1-1.213-1.211Z" clip-rule="evenodd"/></svg>