<svg xmlns="http://www.w3.org/2000/svg" viewBox="0 0 14 14" fill="currentColor"><path d="M13.982 7.002a.49.49 0 0 0-.27-.443l-2.599-1.253 2.598-1.253a.49.49 0 0 0 .271-.443.49.49 0 0 0-.27-.444L7.18.043a.396.396 0 0 0-.36 0L.27 3.186a.49.49 0 0 0-.27.443.49.49 0 0 0 .27.443l2.6 1.253L.27 6.56a.49.49 0 0 0-.27.442.49.49 0 0 0 .27.444l2.6 1.234-2.6 1.253a.49.49 0 0 0-.271.443.49.49 0 0 0 .27.443l6.55 3.142c.054.02.126.039.18.039.054 0 .126-.02.18-.039l6.55-3.142a.49.49 0 0 0 .27-.443.49.49 0 0 0-.27-.443L11.112 8.68l2.598-1.253a.434.434 0 0 0 .271-.425ZM1.552 3.63 7 1.007l5.448 2.603-2.417 1.156-1.1.52L7 6.213l-1.93-.925-1.1-.501L1.552 3.63Zm10.878 6.747L7 12.978l-5.448-2.602 2.417-1.157 2.833 1.369c.054.02.126.039.18.039.054 0 .126-.02.18-.039l2.833-1.369 2.435 1.157ZM10.013 8.16l-1.1.52-1.931.926L5.07 8.68l-1.1-.521-2.418-1.157 2.417-1.156 2.418 1.156.415.193c.054.02.126.039.18.039.054 0 .126-.02.18-.039l.415-.193 2.418-1.156 2.417 1.156-2.4 1.157Z"/></svg>