<?xml version="1.0" encoding="utf-8"?>
<!-- Generator: Adobe Illustrator 19.0.0, SVG Export Plug-In . SVG Version: 6.00 Build 0)  -->
<svg version="1.1" id="Layer_1" xmlns="http://www.w3.org/2000/svg" xmlns:xlink="http://www.w3.org/1999/xlink" x="0px" y="0px"
    viewBox="-247 370.9 100 100" style="enable-background:new -247 370.9 100 100;"
	 xml:space="preserve">
<g>
	<path d="M-162.2,386c-19.2-19.2-50.5-19.2-69.7,0c-19.2,19.3-19.1,50.5,0.1,69.7c19.2,19.2,50.4,19.3,69.7,0.1
		C-142.9,436.5-142.9,405.3-162.2,386z M-165.7,452.2c-17.3,17.3-45.3,17.2-62.6-0.1s-17.3-45.3,0-62.5s45.3-17.3,62.6-0.1
		S-148.5,435-165.7,452.2z"/>
	<path d="M-171.4,395.3c-1-1-2.6-1-3.5,0l-22,22l-22-22c-1-1-2.6-1-3.5,0s-1,2.6,0,3.5l22,22l-22,22c-1,1-1,2.6,0,3.5s2.6,1,3.5,0
		l22-22l22,22c1,1,2.6,1,3.5,0s1-2.6,0-3.5l-22-22l22-22C-170.5,397.9-170.5,396.3-171.4,395.3z"/>
</g>
</svg>
