<svg viewBox="0 0 14 14" xmlns="http://www.w3.org/2000/svg">
    <path fill-rule="evenodd" clip-rule="evenodd"
          d="M11.4621 5.77026L11.4465 5.79159L11.431 5.81099L4.25297 13.4937C4.17304 13.5793 4.06486 13.633 3.94839 13.645L0.535913 13.998H0.485473C0.419945 13.9981 0.355084 13.9849 0.294805 13.9592C0.234526 13.9335 0.18008 13.8958 0.134753 13.8485C0.0894256 13.8012 0.0541578 13.7452 0.0310783 13.6839C0.00799888 13.6226 -0.00241351 13.5572 0.000469744 13.4918L0.153731 10.0897C0.159284 9.97634 0.204618 9.86852 0.281771 9.78522L8.81782 0.64585C9.12028 0.314424 9.52551 0.0944289 9.96825 0.0213004C10.1839 -0.0161099 10.4052 -0.00412771 10.6156 0.0563451C10.826 0.116818 11.0199 0.224206 11.1827 0.370427L12.8996 1.97447C13.5204 2.55247 13.47 3.61925 12.7871 4.35047L11.4621 5.77026ZM10.1099 0.981399C9.88519 1.02397 9.68071 1.13913 9.52787 1.30919L8.51518 2.39342L11.0585 4.77331L12.0751 3.68907C12.3874 3.35546 12.4612 2.89384 12.2361 2.68436L10.5173 1.08032C10.4608 1.03489 10.395 1.00248 10.3246 0.985381C10.2542 0.968283 10.1809 0.966923 10.1099 0.981399ZM0.995696 12.972L3.66709 12.6965L10.4048 5.4832L7.85364 3.10719L1.11598 10.3167L0.995696 12.972ZM8.00288 13.0303H13.5145C13.6431 13.0303 13.7664 13.0814 13.8574 13.1723C13.9484 13.2633 13.9995 13.3866 13.9995 13.5152C13.9995 13.6438 13.9484 13.7671 13.8574 13.8581C13.7664 13.949 13.6431 14.0001 13.5145 14.0001H8.00288C7.87424 14.0001 7.75088 13.949 7.65993 13.8581C7.56897 13.7671 7.51787 13.6438 7.51787 13.5152C7.51787 13.3866 7.56897 13.2633 7.65993 13.1723C7.75088 13.0814 7.87424 13.0303 8.00288 13.0303Z"
          />
</svg>
