<svg xmlns="http://www.w3.org/2000/svg" viewBox="0 0 14 14" fill="currentColor"><path d="M10.973 9.413a2.313 2.313 0 0 0-1.935 1.05L4.517 7.75a2.277 2.277 0 0 0 0-1.404l4.52-2.712a2.386 2.386 0 0 0 3.063.845 2.362 2.362 0 0 0 .04-4.212 2.386 2.386 0 0 0-3.078.79 2.354 2.354 0 0 0-.37 1.653L4.017 5.497a2.31 2.31 0 0 0-2.54-.602 2.3 2.3 0 0 0-1.073.843A2.288 2.288 0 0 0 1.478 9.18a2.318 2.318 0 0 0 2.54-.602l4.673 2.787a2.299 2.299 0 0 0 1.165 2.349 2.315 2.315 0 0 0 2.618-.269 2.292 2.292 0 0 0 .659-2.535 2.295 2.295 0 0 0-.844-1.086 2.313 2.313 0 0 0-1.316-.411Zm0-8.33a1.339 1.339 0 0 1 1.233.818 1.322 1.322 0 0 1-.29 1.447 1.336 1.336 0 0 1-2.276-.939c0-.352.14-.689.39-.938a1.34 1.34 0 0 1 .943-.389ZM2.32 8.387a1.339 1.339 0 0 1-1.232-.82 1.32 1.32 0 0 1 .29-1.446 1.336 1.336 0 0 1 2.276.939c0 .351-.141.689-.391.937a1.34 1.34 0 0 1-.943.39Zm8.653 4.65a1.339 1.339 0 0 1-1.232-.82 1.321 1.321 0 0 1 .29-1.446 1.336 1.336 0 0 1 2.276.938 1.33 1.33 0 0 1-1.334 1.33v-.003Z"/></svg>