<svg xmlns="http://www.w3.org/2000/svg" viewBox="0 0 14 14" fill="currentColor"><path fill-rule="evenodd" d="M13.508 8.443H6.897a.486.486 0 0 1-.486-.486V.487A.487.487 0 0 1 6.903 0h6.611A.486.486 0 0 1 14 .487v7.47a.487.487 0 0 1-.492.486ZM7.39 7.47h5.639V.973h-5.64V7.47ZM.486 4.744h4.272a.486.486 0 0 0 .492-.486V.487A.487.487 0 0 0 4.764 0H.486A.486.486 0 0 0 0 .487v3.77a.487.487 0 0 0 .486.487Zm3.792-.973H.972V.973h3.306v2.798ZM.486 14h4.272a.487.487 0 0 0 .492-.487V6.425a.487.487 0 0 0-.486-.487H.486A.486.486 0 0 0 0 6.425v7.088A.487.487 0 0 0 .486 14Zm3.792-.973H.972V6.919h3.306v6.108Zm2.62.973h6.61a.485.485 0 0 0 .492-.487v-3.39a.489.489 0 0 0-.492-.486h-6.61a.486.486 0 0 0-.487.487v3.39a.487.487 0 0 0 .486.486Zm6.13-.974H7.389v-2.408h5.639v2.408Z" clip-rule="evenodd"/></svg>