<svg xmlns="http://www.w3.org/2000/svg" viewBox="0 0 14 13" fill="currentColor"><path d="M11.064 6.19V2.302a.408.408 0 0 0-.012-.094V2.2a.407.407 0 0 0-.03-.077l-.018-.039a.405.405 0 0 0-.03-.045l-.021-.024a.422.422 0 0 0-.053-.045l-.014-.012a.432.432 0 0 0-.101-.042L7.185.61a.438.438 0 0 0-.297 0l-3.66 1.308a.43.43 0 0 0-.087.044l-.014.012a.424.424 0 0 0-.053.045l-.02.024a.419.419 0 0 0-.038.053l-.015.025a.414.414 0 0 0-.033.083.41.41 0 0 0-.012.092V6.19C1.154 6.782 0 7.774 0 8.915c0 1.327 1.543 2.477 3.992 3.02l-.172.108a.427.427 0 0 0-.215.266.41.41 0 0 0 .181.456.435.435 0 0 0 .5-.023l1.09-.682a.425.425 0 0 0 .185-.266.41.41 0 0 0-.062-.316l-.62-.944a.437.437 0 0 0-.592-.127.412.412 0 0 0-.13.58l.088.134C2.23 10.693.857 9.817.857 8.915c0-.758.868-1.395 2.106-1.837a.415.415 0 0 0 .27.292l3.612 1.256h.039l.04.01h.144l.04-.01h.047l3.611-1.25a.428.428 0 0 0 .271-.293c1.238.442 2.106 1.079 2.106 1.837 0 .963-1.578 1.907-3.838 2.296a.436.436 0 0 0-.288.169.415.415 0 0 0 .266.659c.057.01.115.01.171-.003C12.215 11.567 14 10.341 14 8.92c.014-1.146-1.14-2.138-2.936-2.73Zm-4.483-.594v2.043L4.05 6.765l-.244-.084V2.924l2.77 1.065.005 1.607Zm.427-2.349-2.423-.929 2.445-.877 2.4.874-2.422.933Zm3.2 2.696v.733l-.244.084-2.526.879V3.987l2.77-1.063v3.019Z"/></svg>