<svg xmlns="http://www.w3.org/2000/svg" viewBox="0 0 14 14" fill="currentColor"><path fill-rule="evenodd" d="M10.608 6.354H3.379a.49.49 0 0 1-.339-.145.482.482 0 0 1-.14-.34V.486a.49.49 0 0 1 .488-.484h7.23a.49.49 0 0 1 .339.145c.09.09.14.212.14.34V5.87a.482.482 0 0 1-.144.342.49.49 0 0 1-.345.142ZM10.119.969h-6.25v4.417h6.252V.969Zm2.84 12.062h.553v.002a.49.49 0 0 1 .345.142.482.482 0 0 1-.345.826h-2.083a.49.49 0 0 1-.345-.142.482.482 0 0 1 .345-.826h.553V9.936a1.504 1.504 0 0 1-.707-.509 14.257 14.257 0 0 1-4.361.639 14.422 14.422 0 0 1-4.222-.594 1.51 1.51 0 0 1-.674.464v3.097h.553a.49.49 0 0 1 .345.142.482.482 0 0 1-.345.826H.488a.49.49 0 0 1-.345-.142.482.482 0 0 1 .345-.826h.553V9.936a1.5 1.5 0 0 1-.668-.457A1.48 1.48 0 0 1 .656 7.32a1.51 1.51 0 0 1 2.153.437c.144.233.22.5.22.774v.03c1.26.368 2.57.549 3.885.537a13.46 13.46 0 0 0 4.056-.594 1.477 1.477 0 0 1 .83-1.305 1.513 1.513 0 0 1 1.551.127 1.474 1.474 0 0 1 .272 2.153 1.5 1.5 0 0 1-.664.455v3.097ZM1.82 8.1a.527.527 0 0 0-.662.064.516.516 0 0 0 .17.846.528.528 0 0 0 .571-.112.517.517 0 0 0-.08-.798Zm10.916-.016a.527.527 0 0 0-.49-.024.52.52 0 0 0-.285.341.51.51 0 0 0-.005.227.104.104 0 0 0 .007.011c.005.008.01.016.01.024a.61.61 0 0 1 .024.089.52.52 0 0 0 .44.297.528.528 0 0 0 .476-.24.516.516 0 0 0-.177-.725Z" clip-rule="evenodd"/></svg>