<svg xmlns="http://www.w3.org/2000/svg" viewBox="0 0 14 14" fill="currentColor"><path d="M13.495 8.192h-.696V.53a.54.54 0 0 0-.15-.375.505.505 0 0 0-.364-.155H1.723a.505.505 0 0 0-.363.155.54.54 0 0 0-.15.375v7.662H.513a.505.505 0 0 0-.363.155.54.54 0 0 0 0 .75c.097.1.227.156.363.156h2.054l-1.051 4.083a.547.547 0 0 0 .09.458.517.517 0 0 0 .407.206h2.384a.503.503 0 0 0 .313-.109.532.532 0 0 0 .184-.283l1.13-4.36h1.963l1.13 4.36a.53.53 0 0 0 .182.282c.09.071.2.11.312.11h2.385a.5.5 0 0 0 .408-.207.54.54 0 0 0 .089-.461l-1.06-4.08h2.054a.505.505 0 0 0 .363-.155.54.54 0 0 0 0-.75.505.505 0 0 0-.363-.155h.008Zm-1.723-7.131v5.224a3.955 3.955 0 0 0-2.736-1.13c-.31 0-.62.04-.922.116A3.808 3.808 0 0 0 6.76 3.714a3.64 3.64 0 0 0-1.943-.594c-.48.003-.955.103-1.398.296a3.648 3.648 0 0 0-1.182.826V1.061h9.536ZM2.236 6.264a2.83 2.83 0 0 1 .955-1.485 2.68 2.68 0 0 1 1.625-.598 2.63 2.63 0 0 1 1.362.407c.41.259.747.627.973 1.065a4.36 4.36 0 0 0-2.01 2.545H2.235V6.264Zm1.767 6.675h-1.32l.956-3.69h1.32l-.956 3.69Zm7.323 0h-1.32l-.957-3.69h1.32l.957 3.69Zm-.563-4.751h-4.53a3.16 3.16 0 0 1 1.115-1.42 3.013 3.013 0 0 1 1.688-.553 3.01 3.01 0 0 1 1.62.508c.483.322.87.777 1.116 1.314v.155l-1.009-.004Z"/></svg>