<svg viewBox="0 0 21 20" xmlns="http://www.w3.org/2000/svg">
<path d="M13.7129 17.1514C12.9213 19.0986 11.6973 20.0138 9.98259 19.9998C8.26788 19.9859 7.06145 19.068 6.29027 17.1514H5.81412C4.55219 17.1514 3.28733 17.1514 2.01664 17.1514C1.73509 17.1569 1.45432 17.1212 1.18411 17.0457C0.91314 16.9589 0.668878 16.8098 0.47304 16.6114C0.277201 16.4131 0.135854 16.1718 0.0615644 15.9089C-0.0127254 15.646 -0.0176563 15.3697 0.0472099 15.1046C0.112076 14.8395 0.24473 14.5937 0.433378 14.3892C0.539437 14.2806 0.651578 14.1775 0.76931 14.0804C1.45525 13.5028 2.00643 12.7947 2.38731 12.0017C2.76819 11.2088 2.9703 10.3486 2.98061 9.4767C3.00106 8.55596 2.98061 7.63522 2.98061 6.71448C3.05072 4.09412 4.28637 2.1219 6.67586 0.817289C7.47368 0.409077 8.34631 0.150343 9.24647 0.0551056C9.74409 -0.0122792 10.2488 -0.0178894 10.7479 0.0384155C11.04 0.096831 11.3322 0.14412 11.5921 0.205317C13.115 0.547265 14.474 1.36448 15.4527 2.52689C16.4315 3.6893 16.9738 5.13008 16.9933 6.6199C17.0109 7.48222 16.9933 8.34177 16.9933 9.20409C16.9692 10.1368 17.1633 11.063 17.5614 11.9155C17.9595 12.768 18.5517 13.5256 19.2952 14.1333C19.8648 14.62 20.1452 15.1959 19.9291 15.9219C19.8516 16.2281 19.6792 16.505 19.4344 16.7168C19.1896 16.9286 18.8836 17.0655 18.5561 17.1097C18.3407 17.1419 18.1227 17.1559 17.9047 17.1514C16.6895 17.1514 15.4714 17.1514 14.2562 17.1514H13.7129ZM10.006 15.7216H17.7762C17.9162 15.7311 18.0568 15.7311 18.1968 15.7216C18.489 15.6799 18.562 15.5018 18.3692 15.2904C18.2991 15.2125 18.2085 15.1514 18.1297 15.079C16.7477 13.8894 15.8526 12.2723 15.6029 10.5143C15.4977 9.76878 15.524 9.00381 15.4977 8.24719C15.4714 7.49057 15.5152 6.7562 15.4276 6.02184C15.3246 5.21564 15.0244 4.44371 14.5511 3.76811C14.0778 3.09251 13.4446 2.5321 12.7024 2.13193C11.9603 1.73177 11.1299 1.50302 10.278 1.46408C9.42615 1.42513 8.57656 1.57709 7.79758 1.90771C5.65054 2.83958 4.56972 4.49469 4.50545 6.73951C4.47916 7.67416 4.50545 8.61159 4.48792 9.54624C4.47058 10.5978 4.22554 11.6347 3.76815 12.5919C3.31075 13.5492 2.65084 14.4063 1.82968 15.1096C1.77418 15.1597 1.69531 15.1986 1.66026 15.2626C1.6252 15.3266 1.52881 15.4935 1.56094 15.5686C1.59307 15.6437 1.74789 15.6966 1.85305 15.7216C1.97731 15.7347 2.1027 15.7347 2.22696 15.7216H10.006ZM7.96116 17.182C8.10177 17.5955 8.37927 17.9545 8.75212 18.2052C9.12496 18.456 9.57307 18.585 10.0293 18.5728C10.9758 18.5728 11.8434 17.9692 12.0362 17.182H7.96116Z" />
</svg>
