<svg xmlns="http://www.w3.org/2000/svg" viewBox="0 0 14 14" fill="currentColor"><path d="M13.403 11.148a5.23 5.23 0 0 0-1.117-6.299 5.188 5.188 0 0 0-1.976-1.12A5.219 5.219 0 0 0 7.568.51a5.177 5.177 0 0 0-5.999 1.11A5.217 5.217 0 0 0 .152 5.61c.055.728.262 1.436.607 2.078l-.74 2.575a.487.487 0 0 0 .33.6.482.482 0 0 0 .25.006l2.913-.75c.107.04.215.078.324.111a5.217 5.217 0 0 0 2.946 3.285 5.174 5.174 0 0 0 4.4-.167l2.192.633a.481.481 0 0 0 .598-.331.486.486 0 0 0 .005-.251l-.574-2.251ZM4.639 9.425a4.177 4.177 0 0 1-1.01-.305l-.044-.02-1.322.34-1.082.278.29-1.005.332-1.164A4.251 4.251 0 0 1 3.32 1.487 4.213 4.213 0 0 1 8.2 2.1c.43.398.772.882 1.006 1.421a4.257 4.257 0 0 1-.86 4.707 4.223 4.223 0 0 1-3.669 1.204l-.038-.008Zm8.311.093A4.228 4.228 0 0 1 12.37 11l.306 1.198.156.615-.605-.17-1.16-.338a4.21 4.21 0 0 1-6.12-1.865 5.173 5.173 0 0 0 4.07-1.511 5.214 5.214 0 0 0 1.52-3.688c0-.135 0-.267-.018-.4a4.227 4.227 0 0 1 2.03 1.912c.44.85.583 1.824.401 2.765Z"/></svg>