<svg viewBox="0 0 7 14" xmlns="http://www.w3.org/2000/svg">
<path d="M4.23605 0V2.24737H3.10944V0H4.23605ZM4.10086 12.0326V14H2.98176V12.0326H4.10086ZM5.603 9.70421C5.603 9.40947 5.53541 9.14421 5.40021 8.90842C5.26502 8.67263 5.0422 8.45649 4.73176 8.26C4.42132 8.06351 4.00572 7.88175 3.48498 7.71474C2.85408 7.52316 2.3083 7.28982 1.84764 7.01474C1.39199 6.73965 1.03898 6.39825 0.788627 5.99053C0.543276 5.58281 0.420601 5.08912 0.420601 4.50947C0.420601 3.90526 0.55329 3.38456 0.81867 2.94737C1.08405 2.51018 1.45959 2.17368 1.94528 1.93789C2.43097 1.70211 3.00179 1.58421 3.65773 1.58421C4.16846 1.58421 4.62411 1.66035 5.02468 1.81263C5.42525 1.96 5.76323 2.18105 6.03863 2.47579C6.31903 2.77053 6.53183 3.13158 6.67704 3.55895C6.82725 3.98632 6.90236 4.48 6.90236 5.04H5.52039C5.52039 4.71088 5.48033 4.40877 5.40021 4.13368C5.3201 3.8586 5.19993 3.62035 5.0397 3.41895C4.87947 3.21263 4.68419 3.05544 4.45386 2.94737C4.22353 2.83439 3.95815 2.77789 3.65773 2.77789C3.23712 2.77789 2.88913 2.84912 2.61373 2.99158C2.34335 3.13404 2.14306 3.33544 2.01288 3.59579C1.88269 3.85123 1.8176 4.14842 1.8176 4.48737C1.8176 4.80175 1.88269 5.07684 2.01288 5.31263C2.14306 5.54842 2.36338 5.76211 2.67382 5.95368C2.98927 6.14035 3.42239 6.32456 3.97318 6.50632C4.6191 6.70772 5.16738 6.94597 5.61803 7.22105C6.06867 7.49123 6.41166 7.82526 6.647 8.22316C6.88233 8.61614 7 9.10491 7 9.68947C7 10.3232 6.85479 10.8586 6.56438 11.2958C6.27396 11.7281 5.86588 12.0572 5.34013 12.2832C4.81438 12.5091 4.1985 12.6221 3.49249 12.6221C3.06688 12.6221 2.64628 12.5656 2.23069 12.4526C1.81509 12.3396 1.43956 12.1554 1.10408 11.9C0.768598 11.6396 0.500715 11.2982 0.300429 10.8758C0.100143 10.4484 0 9.92526 0 9.30632H1.397C1.397 9.72386 1.45708 10.0702 1.57725 10.3453C1.70243 10.6154 1.86767 10.8316 2.07296 10.9937C2.27825 11.1509 2.50358 11.2639 2.74893 11.3326C2.99928 11.3965 3.24714 11.4284 3.49249 11.4284C3.94313 11.4284 4.32368 11.3596 4.63412 11.2221C4.94957 11.0796 5.18991 10.8782 5.35515 10.6179C5.52039 10.3575 5.603 10.053 5.603 9.70421Z" />
</svg>
