<svg viewBox="0 0 18 18" xmlns="http://www.w3.org/2000/svg">
<path fill-rule="evenodd" clip-rule="evenodd" d="M13.6388 8.16906H4.3449C4.18054 8.1658 4.02402 8.09882 3.90896 7.98249C3.79389 7.86617 3.72946 7.70978 3.72949 7.54691V0.623615C3.72949 0.458611 3.79565 0.300364 3.91342 0.183689C4.03119 0.0670127 4.19091 0.00146484 4.35746 0.00146484H13.6513C13.8157 0.00472226 13.9722 0.0717053 14.0873 0.18803C14.2023 0.304355 14.2668 0.460744 14.2667 0.623615V7.54691C14.2667 7.71191 14.2006 7.87016 14.0828 7.98683C13.9651 8.10351 13.8053 8.16906 13.6388 8.16906ZM13.0108 1.24577H4.97286V6.92476H13.0108V1.24577ZM16.6612 16.7543H17.372V16.7568C17.5386 16.7568 17.6983 16.8223 17.8161 16.939C17.9338 17.0557 18 17.2139 18 17.3789C18 17.5439 17.9338 17.7022 17.8161 17.8188C17.6983 17.9355 17.5386 18.0011 17.372 18.0011H14.6944C14.5278 18.0011 14.3681 17.9355 14.2503 17.8188C14.1326 17.7022 14.0664 17.5439 14.0664 17.3789C14.0664 17.2139 14.1326 17.0557 14.2503 16.939C14.3681 16.8223 14.5278 16.7568 14.6944 16.7568H15.4052V12.775C15.0434 12.6508 14.727 12.423 14.4959 12.1205C12.6819 12.6829 10.7901 12.96 8.88948 12.9417C7.05172 12.9573 5.222 12.6998 3.46134 12.1777C3.23388 12.4525 2.93387 12.6592 2.59475 12.775V16.7568H3.30561C3.47216 16.7568 3.63188 16.8223 3.74965 16.939C3.86741 17.0557 3.93357 17.2139 3.93357 17.3789C3.93357 17.5439 3.86741 17.7022 3.74965 17.8188C3.63188 17.9355 3.47216 18.0011 3.30561 18.0011H0.627965C0.461419 18.0011 0.301693 17.9355 0.183927 17.8188C0.0661604 17.7022 0 17.5439 0 17.3789C0 17.2139 0.0661604 17.0557 0.183927 16.939C0.301693 16.8223 0.461419 16.7568 0.627965 16.7568H1.33882V12.775C1.00346 12.6611 0.706254 12.4579 0.479842 12.1876C0.25343 11.9173 0.106567 11.5905 0.0553807 11.2429C0.00419409 10.8954 0.0506631 10.5406 0.189685 10.2175C0.328707 9.89439 0.554905 9.6155 0.843442 9.41143C1.13198 9.20736 1.47169 9.08601 1.82529 9.06071C2.17888 9.0354 2.53267 9.10712 2.84781 9.26798C3.16296 9.42885 3.42727 9.67264 3.61172 9.97259C3.79617 10.2725 3.89362 10.617 3.89338 10.9683V11.0081C5.5154 11.4804 7.19894 11.7126 8.88948 11.6974C10.657 11.7101 12.4159 11.4524 14.1041 10.9334C14.11 10.5838 14.2126 10.2424 14.4008 9.94659C14.589 9.65072 14.8554 9.41168 15.1712 9.25547C15.487 9.09927 15.84 9.0319 16.1918 9.06069C16.5435 9.08948 16.8806 9.21333 17.1662 9.41877C17.4519 9.6242 17.6751 9.90333 17.8117 10.2258C17.9483 10.5482 17.993 10.9016 17.9409 11.2475C17.8888 11.5933 17.742 11.9184 17.5163 12.1873C17.2907 12.4562 16.9949 12.6586 16.6612 12.7725V16.7543ZM2.34079 10.4137C2.23008 10.3404 2.09993 10.3013 1.96679 10.3013C1.78825 10.3013 1.61702 10.3716 1.49078 10.4967C1.36453 10.6217 1.29361 10.7914 1.29361 10.9683C1.29361 11.1002 1.33309 11.2291 1.40706 11.3388C1.48103 11.4485 1.58617 11.534 1.70917 11.5844C1.83218 11.6349 1.96753 11.6481 2.09812 11.6224C2.2287 11.5967 2.34865 11.5331 2.4428 11.4399C2.53694 11.3466 2.60106 11.2278 2.62703 11.0984C2.65301 10.969 2.63967 10.8349 2.58872 10.713C2.53777 10.5912 2.45149 10.487 2.34079 10.4137ZM16.3763 10.3936C16.2723 10.333 16.1538 10.3011 16.0332 10.3013C15.9339 10.3005 15.8357 10.3217 15.7457 10.3632C15.6558 10.4047 15.5762 10.4656 15.513 10.5414C15.4497 10.6172 15.4043 10.706 15.38 10.8013C15.3557 10.8967 15.3532 10.9962 15.3726 11.0927C15.3751 11.0977 15.3785 11.1026 15.3818 11.1076C15.3885 11.1176 15.3952 11.1275 15.3952 11.1375C15.4089 11.1746 15.419 11.2129 15.4253 11.252C15.4767 11.3601 15.5564 11.4526 15.6561 11.5198C15.7559 11.587 15.872 11.6264 15.9924 11.6339C16.1128 11.6414 16.233 11.6167 16.3405 11.5624C16.4479 11.5081 16.5387 11.4261 16.6032 11.3252C16.6678 11.2242 16.7038 11.1079 16.7074 10.9885C16.7111 10.869 16.6823 10.7508 16.624 10.6461C16.5658 10.5415 16.4802 10.4543 16.3763 10.3936Z" />
</svg>
