<svg xmlns="http://www.w3.org/2000/svg" viewBox="0 0 13 14" fill="currentColor"><path d="M12.577 4.506c.27-.271.346-.697.135-1.025-.212-.368-.654-.503-1.04-.368L7.538.696A.864.864 0 0 0 6.71 0c-.423 0-.77.31-.827.715L1.766 3.113a.834.834 0 0 0-1.058.348.825.825 0 0 0 .154 1.045v4.95a.886.886 0 0 0-.173 1.063.841.841 0 0 0 .981.387l4.232 2.456A.844.844 0 0 0 6.71 14c.385 0 .712-.27.808-.619l4.232-2.456a.816.816 0 0 0 .962-.386.849.849 0 0 0-.135-1.025V4.506ZM2.305 10.152 6.248 7.87v4.564l-3.943-2.282Zm5.367-3.113 3.943-2.282V9.32L7.672 7.04ZM1.824 9.32V4.757l3.943 2.282L1.824 9.32Zm5.367-3.132V1.624l3.943 2.282-3.943 2.282Zm-.962-4.564v4.564L2.305 3.906l3.924-2.282Zm.962 10.81V7.87l3.943 2.282-3.943 2.282Z"/></svg>