<svg viewBox="0 0 19 20" xmlns="http://www.w3.org/2000/svg">
<path fill-rule="evenodd" clip-rule="evenodd" d="M17.2569 10.7161L18.0251 11.2448C18.4918 11.5691 18.8196 12.0541 18.9444 12.605C19.0692 13.1559 18.9821 13.7331 18.7002 14.2238L17.7935 15.779C17.5058 16.2698 17.0427 16.6358 16.4956 16.8047C15.9486 16.9735 15.3574 16.9329 14.8392 16.6909L13.9749 16.2881L13.941 16.3105C13.5738 16.5622 13.1854 16.7821 12.7801 16.9678L12.7434 16.9846L12.6643 17.9329C12.6145 18.4939 12.3555 19.0165 11.9377 19.3987C11.52 19.7808 10.9735 19.9952 10.4048 20H8.59151C8.02282 19.9952 7.47632 19.7808 7.05858 19.3987C6.64083 19.0165 6.38179 18.4939 6.33196 17.9329L6.25005 16.9427L6.21333 16.9259C5.82404 16.7425 5.45086 16.5273 5.09768 16.2825L5.06379 16.2601L4.14867 16.6881C3.63194 16.9261 3.04414 16.9645 2.50032 16.7958C1.9565 16.6272 1.49581 16.2636 1.20843 15.7762L0.30179 14.221C0.0187023 13.7303 -0.0692871 13.1527 0.0550461 12.6012C0.179379 12.0497 0.507083 11.564 0.974005 11.2392L1.82134 10.6573V10.6182C1.79309 10.3944 1.79309 10.1902 1.79309 9.9972C1.79309 9.8042 1.80439 9.6 1.82134 9.37622V9.33706L0.974005 8.75524C0.508019 8.43101 0.180891 7.94632 0.056576 7.39591C-0.0677393 6.84551 0.0196967 6.26897 0.30179 5.77902L1.20843 4.22098C1.49595 3.73754 1.95436 3.37694 2.49492 3.209C3.03547 3.04106 3.61972 3.07772 4.13455 3.31189L5.04966 3.73706L5.08356 3.71469C5.44146 3.47115 5.81938 3.25781 6.21333 3.07692L6.25005 3.05734L6.33196 2.06713C6.38179 1.50608 6.64083 0.983514 7.05858 0.601341C7.47632 0.219169 8.02282 0.00478728 8.59151 0H10.4189C10.9876 0.00478728 11.5341 0.219169 11.9518 0.601341C12.3696 0.983514 12.6286 1.50608 12.6785 2.06713L12.7575 3.01538L12.7943 3.03217C13.1996 3.21773 13.588 3.43766 13.9551 3.68951L13.989 3.71189L14.8533 3.30909C15.37 3.07112 15.9578 3.03271 16.5016 3.20137C17.0455 3.37003 17.5061 3.73363 17.7935 4.22098L18.6973 5.77902C18.9794 6.26897 19.0669 6.84551 18.9425 7.39591C18.8182 7.94632 18.4911 8.43101 18.0251 8.75524L17.2569 9.28392V9.32308C17.2908 9.57203 17.2908 9.79301 17.2908 10C17.2908 10.207 17.2795 10.428 17.2569 10.6769V10.7161ZM16.5536 15.0741L17.4602 13.5189L17.4659 13.5161C17.5742 13.333 17.6085 13.1162 17.5619 12.9091C17.5152 12.702 17.3911 12.5201 17.2145 12.4L15.7317 11.3818L15.7995 10.9483C15.8953 10.3196 15.8953 9.68035 15.7995 9.05175L15.7317 8.61818L17.206 7.61958C17.3834 7.49941 17.508 7.317 17.5547 7.10927C17.6013 6.90154 17.5666 6.684 17.4574 6.5007L16.5508 4.94545C16.4447 4.76126 16.2721 4.62368 16.0677 4.56037C15.8634 4.49706 15.6424 4.51272 15.4492 4.6042L13.8026 5.37343L13.458 5.09371C12.9612 4.70435 12.408 4.39128 11.817 4.16504L11.4018 4.00559L11.2493 2.1958C11.2329 1.98458 11.1364 1.78731 10.9793 1.6436C10.8221 1.49988 10.6159 1.42036 10.402 1.42098H8.58868C8.37477 1.42036 8.16854 1.49988 8.01137 1.6436C7.85421 1.78731 7.75775 1.98458 7.74135 2.1958L7.58601 4.03357L7.17929 4.1958C6.60565 4.41817 6.06801 4.72257 5.58348 5.0993L5.23608 5.37902L3.54142 4.58462C3.34825 4.49314 3.12727 4.47748 2.92291 4.54079C2.71856 4.6041 2.54598 4.74168 2.43989 4.92587L1.53324 6.48112C1.42408 6.66442 1.38931 6.88196 1.43598 7.08969C1.48265 7.29742 1.60727 7.47983 1.78462 7.6L3.34088 8.67133L3.27874 9.10769C3.19195 9.70508 3.19195 10.3117 3.27874 10.9091L3.34088 11.3287L1.78462 12.3972C1.60727 12.5174 1.48265 12.6998 1.43598 12.9075C1.38931 13.1152 1.42408 13.3328 1.53324 13.5161L2.44836 15.0769C2.55446 15.2611 2.72703 15.3987 2.93139 15.462C3.13574 15.5253 3.35672 15.5097 3.54989 15.4182L5.24455 14.6238L5.59196 14.9035C6.07272 15.2856 6.60754 15.5956 7.17929 15.8238L7.58036 15.9944L7.74417 17.8238C7.76057 18.035 7.85704 18.2323 8.0142 18.376C8.17136 18.5197 8.37759 18.5992 8.59151 18.5986H10.4104C10.6244 18.5992 10.8306 18.5197 10.9877 18.376C11.1449 18.2323 11.2414 18.035 11.2578 17.8238L11.4103 16.014L11.8255 15.8545C12.4163 15.6281 12.9695 15.3151 13.4665 14.9259L13.8111 14.6462L15.4521 15.4154C15.6452 15.5069 15.8662 15.5225 16.0706 15.4592C16.2749 15.3959 16.4475 15.2583 16.5536 15.0741ZM7.40551 6.83692C8.0372 6.41891 8.77986 6.1958 9.53958 6.1958C10.5581 6.19654 11.5347 6.59758 12.2549 7.31084C12.9751 8.02411 13.3801 8.99129 13.3808 10C13.3808 10.7524 13.1555 11.4879 12.7334 12.1135C12.3114 12.7391 11.7115 13.2267 11.0096 13.5146C10.3077 13.8025 9.53532 13.8779 8.7902 13.7311C8.04507 13.5843 7.36063 13.222 6.82342 12.69C6.28622 12.1579 5.92038 11.4801 5.77216 10.7422C5.62395 10.0042 5.70002 9.23932 5.99075 8.54419C6.28148 7.84907 6.77382 7.25493 7.40551 6.83692ZM8.19637 11.9881C8.59396 12.2512 9.0614 12.3916 9.53958 12.3916V12.3944C10.1811 12.3937 10.796 12.1408 11.2493 11.6913C11.7027 11.2418 11.9573 10.6325 11.9573 9.9972C11.9573 9.52363 11.8155 9.0607 11.5498 8.66694C11.2842 8.27318 10.9066 7.96628 10.4648 7.78506C10.023 7.60383 9.5369 7.55641 9.06791 7.6488C8.59892 7.74119 8.16812 7.96924 7.83 8.3041C7.49188 8.63896 7.26161 9.06561 7.16832 9.53007C7.07504 9.99454 7.12291 10.476 7.3059 10.9135C7.4889 11.351 7.79878 11.725 8.19637 11.9881Z" />
</svg>
