<svg xmlns="http://www.w3.org/2000/svg" viewBox="0 0 14 15" fill="currentColor"><path d="M13.523 11.14h-.7V6.085h.482a.473.473 0 0 0 .338-.143.49.49 0 0 0 .14-.343V4.432a.493.493 0 0 0-.266-.436L7.23.476a.47.47 0 0 0-.46 0L.483 3.997a.48.48 0 0 0-.265.436V5.6a.487.487 0 0 0 .477.486h.481v5.055H.477a.473.473 0 0 0-.337.143.49.49 0 0 0-.14.344v2.298a.494.494 0 0 0 .138.347.476.476 0 0 0 .34.145h13.045a.473.473 0 0 0 .337-.143.49.49 0 0 0 .14-.343v-2.304a.49.49 0 0 0-.14-.344.473.473 0 0 0-.337-.143Zm-1.654 0h-.763V6.085h.763v5.055ZM5.665 6.085v5.055H3.85V6.085h1.814Zm.954 0h.764v5.055h-.764V6.085Zm1.718 0h1.814v5.055H8.337V6.085ZM1.174 4.724l5.827-3.267 5.827 3.265v.389H1.182l-.008-.387Zm.955 1.36h.763v5.056H2.13V6.085Zm10.916 7.36H.955v-1.331h12.09v1.332Z"/></svg>