<svg xmlns="http://www.w3.org/2000/svg" viewBox="0 0 14 14" fill="currentColor"><path d="M14 6.542a5.297 5.297 0 0 0-.534-2.365A7.88 7.88 0 0 0 9.915.597 5.073 5.073 0 0 0 8.013.019a2.764 2.764 0 0 0-1.778.385.914.914 0 0 1-.305.11l-.227.044c-.515.103-1.036.217-1.554.294a3.988 3.988 0 0 0-2.7 1.73A3.427 3.427 0 0 0 .984 5.33a.192.192 0 0 1-.07.206.923.923 0 0 0-.097.096l-.058.06A2.436 2.436 0 0 0 0 7.472a4.594 4.594 0 0 0 .479 2.095 8.244 8.244 0 0 0 3.253 3.587c.949.577 1.858.855 2.767.84a2.483 2.483 0 0 0 1.817-.744c.354-.358.72-.717 1.076-1.063l.385-.385c.038-.036.078-.073.132-.12l.014-.012v.08a3.392 3.392 0 0 0 0 .34 2.139 2.139 0 0 0 .809 1.494 1.98 1.98 0 0 0 1.23.414c.138 0 .277-.013.414-.037a1.824 1.824 0 0 0 1.286-.946c.226-.405.339-.865.324-1.33v-1.492c.008-1.22.008-2.44.014-3.652zm-3.876 1.665a134.342 134.342 0 0 1-1.57-1.575l-.628-.636-.127-.135-.01-.011H12a.96.96 0 0 1 .961.648c.073.207.109.424.106.644.01.453 0 .917 0 1.363v3.16c.011.29-.05.577-.179.836a1.036 1.036 0 0 1-1.689.23 1.167 1.167 0 0 1-.346-.84V9.967a2.308 2.308 0 0 0-.728-1.76zm-5.128-.675a.335.335 0 0 1 .344-.33h.021a.336.336 0 0 1 .211.591.342.342 0 0 1-.576-.261zm-1.007.442c.135.012.175.08.235.192l.01.018a1.274 1.274 0 1 0 1.6-1.813 1.29 1.29 0 0 0-1.557.465 2.82 2.82 0 0 0-.098.163l-.038.068a2.54 2.54 0 0 1-2.021-1.33L5.194 2.59c.042.873.338 1.72.93 2.665.363.568.79 1.092 1.272 1.563.214.214.426.428.638.644.453.46.922.934 1.399 1.384.384.357.518.796.466 1.465a.27.27 0 0 1-.086.142c-.697.701-1.466 1.459-2.244 2.218a1.452 1.452 0 0 1-.96.394 3.403 3.403 0 0 1-1.705-.361 7.182 7.182 0 0 1-3.716-3.856 3.2 3.2 0 0 1-.25-1.484 1.47 1.47 0 0 1 .44-.98l.225.243c.18.204.373.396.576.577a3.127 3.127 0 0 0 1.818.767l-.008.002zm7.745-3.056H7.263a.355.355 0 0 1-.357-.193 5.073 5.073 0 0 1-.732-1.857 2.183 2.183 0 0 1 .023-.865A1.298 1.298 0 0 1 7.28.977a2.468 2.468 0 0 1 1.05.032 5.68 5.68 0 0 1 2.264 1.112 6.552 6.552 0 0 1 2.14 2.708c.026.062.049.125.07.192l.013.039.012.04a2.558 2.558 0 0 0-1.096-.182zM2.32 2.94a3.438 3.438 0 0 1 2.414-1.245c-.427.48-2.477 2.516-2.903 2.883a2.135 2.135 0 0 1 .493-1.638H2.32z"/></svg>