<svg xmlns="http://www.w3.org/2000/svg" viewBox="0 0 306 408" fill="currentColor"><path d="M36.748 388.784c.461 11.01 9.521 19.699 20.539 19.699h191.911c11.018 0 20.078-8.689 20.539-19.699l13.705-289.316H23.043l13.705 289.316zm159.907-217.455a8.35 8.35 0 0 1 8.35-8.349h13.355a8.351 8.351 0 0 1 8.35 8.349v165.293a8.35 8.35 0 0 1-8.35 8.349h-13.355a8.35 8.35 0 0 1-8.35-8.349V171.329zm-58.439 0a8.35 8.35 0 0 1 8.349-8.349h13.355a8.35 8.35 0 0 1 8.349 8.349v165.293a8.348 8.348 0 0 1-8.349 8.349h-13.355a8.348 8.348 0 0 1-8.349-8.349V171.329zm-58.441 0a8.35 8.35 0 0 1 8.349-8.349h13.356a8.35 8.35 0 0 1 8.349 8.349v165.293a8.349 8.349 0 0 1-8.349 8.349H88.124a8.348 8.348 0 0 1-8.349-8.349V171.329zM292.567 21.043h-88.535V4.305A4.305 4.305 0 0 0 199.727 0h-92.971a4.305 4.305 0 0 0-4.304 4.305v16.737H13.916c-7.125 0-12.9 5.776-12.9 12.901V74.47h304.451V33.944c0-7.125-5.775-12.901-12.9-12.901z"/></svg>