<svg viewBox="0 0 14 14" xmlns="http://www.w3.org/2000/svg">
<path d="M13.7972 6.19899L9.59236 2.20425C9.54807 2.16009 9.49962 2.11963 9.44756 2.08336C9.38299 2.03985 9.3074 2.01228 9.22799 2.00325C9.14859 1.99423 9.06799 2.00406 8.99387 2.0318C8.91593 2.06265 8.84806 2.11167 8.79694 2.17401C8.74582 2.23636 8.71322 2.30989 8.70234 2.38737C8.69249 2.45036 8.68797 2.51396 8.68883 2.57759V4.32696C8.68883 4.36785 8.68883 4.40874 8.68883 4.4514V4.47452H7.87411C7.41312 4.46514 6.95196 4.48414 6.49373 4.53141C4.82094 4.73151 3.2761 5.46197 2.12475 6.59722C0.938456 7.737 0.202736 9.21095 0.0358324 10.7822C0.00781071 11.0427 -0.00379241 11.3045 0.00108145 11.5662C-7.51348e-05 11.6607 0.0331304 11.7528 0.0954084 11.8278C0.157686 11.9029 0.245454 11.9566 0.34473 11.9804C0.388479 11.9931 0.434023 11.9997 0.479873 12C0.554882 12.0004 0.628941 11.9845 0.696032 11.9536C0.763123 11.9227 0.821355 11.8777 0.865995 11.8222C0.902684 11.767 0.936194 11.71 0.966387 11.6515C1.45815 10.8892 2.12498 10.2351 2.92017 9.73506C3.90683 9.10029 5.07258 8.74328 6.27557 8.70749C6.82193 8.69326 7.37988 8.69504 7.91852 8.69682H8.51314C8.56903 8.69232 8.62523 8.69232 8.68111 8.69682V9.18216C8.68111 9.64913 8.68111 10.1161 8.68111 10.5831V10.5973C8.68009 10.6567 8.68397 10.7162 8.69269 10.7751C8.70339 10.8524 8.7357 10.9258 8.78646 10.9881C8.83723 11.0504 8.90471 11.0995 8.98228 11.1306C9.0565 11.159 9.13737 11.1693 9.21715 11.1605C9.29693 11.1518 9.37295 11.1244 9.43791 11.0809C9.49987 11.0378 9.55739 10.9896 9.60973 10.9369L13.1717 7.56791L13.7721 6.99723L13.8667 6.90656C13.9143 6.85899 13.9506 6.80279 13.9732 6.74156C13.9958 6.68033 14.0042 6.61542 13.998 6.551C13.9829 6.41422 13.9109 6.28811 13.7972 6.19899ZM9.65414 9.54306C9.65414 9.53061 9.65414 9.51639 9.65414 9.50217V8.35014C9.65854 8.29095 9.65854 8.23155 9.65414 8.17236C9.64169 8.07109 9.59168 7.97686 9.51254 7.90561C9.4334 7.83435 9.32998 7.79042 9.21975 7.78125C9.19017 7.77978 9.16052 7.77978 9.13094 7.78125H8.26796C7.63086 7.78125 6.97252 7.78125 6.32576 7.78125C4.94693 7.81065 3.60646 8.20504 2.46454 8.91727C2.00882 9.19608 1.58797 9.52043 1.20964 9.8844L1.22316 9.83817C1.65743 8.38127 2.66226 7.1241 4.04378 6.30922C4.73368 5.89993 5.5046 5.6202 6.31225 5.48609C6.71111 5.42061 7.11567 5.38907 7.52081 5.39187H9.13094C9.20252 5.39549 9.2741 5.38484 9.3408 5.36065C9.4075 5.33646 9.46774 5.2993 9.51741 5.2517C9.56708 5.2041 9.60501 5.1472 9.62861 5.08486C9.6522 5.02253 9.66091 4.95624 9.65414 4.89052C9.65414 4.67008 9.65414 4.44963 9.65414 4.22918V3.59983L12.7798 6.56878L9.65414 9.54306Z" />
</svg>
