<svg xmlns="http://www.w3.org/2000/svg" viewBox="5 5 14 14"><g clip-path="url(#a)"><path fill-rule="evenodd" d="M6.474 5.504c-.535 0-.97.421-.97.94v11.235c0 .519.435.94.97.94H17.65c.536 0 .97-.421.97-.94V6.444c0-.519-.434-.94-.97-.94H6.474Zm3.016 5.071v5.904H7.528v-5.904H9.49Zm.13-1.826c0 .567-.426 1.02-1.11 1.02h-.014c-.658 0-1.084-.453-1.084-1.02 0-.58.439-1.02 1.11-1.02.672 0 1.085.44 1.097 1.02Zm2.919 7.73h-1.963s.026-5.35 0-5.904h1.963v.836c.26-.402.727-.974 1.768-.974 1.291 0 2.26.844 2.26 2.657v3.385h-1.963v-3.158c0-.794-.284-1.335-.994-1.335-.542 0-.865.365-1.007.718-.052.126-.064.302-.064.478v3.297Z" clip-rule="evenodd"/></g><defs><clipPath id="a"><path d="M0 0h24v24H0z"/></clipPath></defs></svg>