<svg xmlns="http://www.w3.org/2000/svg" viewBox="6 7 12 10"><g clip-path="url(#a)"><path d="M18.071 8.164c-.396.17-.813.29-1.24.353.2-.034.494-.393.61-.538.178-.22.313-.47.4-.738 0-.02.02-.049 0-.063a.069.069 0 0 0-.066 0 6.33 6.33 0 0 1-1.468.57.102.102 0 0 1-.102-.026 1.427 1.427 0 0 0-.129-.134 2.672 2.672 0 0 0-.7-.453 2.465 2.465 0 0 0-1.092-.18c-.362.023-.715.12-1.037.286-.318.174-.597.41-.82.695a2.633 2.633 0 0 0-.5.997 2.737 2.737 0 0 0-.025 1.054c0 .06 0 .069-.051.06-2.032-.299-3.699-1.02-5.061-2.567-.06-.068-.091-.068-.14 0-.592.9-.304 2.325.436 3.029.1.094.203.185.311.27a2.545 2.545 0 0 1-.975-.27c-.057-.037-.088-.017-.09.051-.009.095-.009.19 0 .285a2.587 2.587 0 0 0 1.595 2.063c.104.045.211.078.322.1a2.916 2.916 0 0 1-.955.028c-.068-.014-.094.023-.068.089.419 1.14 1.328 1.487 1.995 1.68.09.015.182.015.285.038l-.018.017c-.196.36-.991.601-1.356.727a4.887 4.887 0 0 1-2.08.268c-.111-.018-.137-.015-.165 0-.029.014 0 .045.031.074a6.823 6.823 0 0 0 1.824.826c2.502.69 5.317.182 7.195-1.684 1.476-1.465 1.994-3.485 1.994-5.508 0-.077.094-.123.148-.163.374-.29.703-.634.978-1.02a.299.299 0 0 0 .068-.205c0-.043 0-.034-.054-.011Z"/></g><defs><clipPath id="a"><path d="M0 0h24v24H0z"/></clipPath></defs></svg>